<svg xmlns="http://www.w3.org/2000/svg" viewBox="0 0 64 64" width="64" height="64">
  <defs>
    <linearGradient id="g" x1="0%" y1="0%" x2="100%" y2="100%">
      <stop offset="0%" style="stop-color:#f59e0b"/>
      <stop offset="100%" style="stop-color:#d97706"/>
    </linearGradient>
  </defs>
  <path d="M32 4l4.5 6.2 7.2-2.1 1.3 7.4 7.4 1.3-2.1 7.2L60 32l-6.2 4.5 2.1 7.2-7.4 1.3-1.3 7.4-7.2-2.1L32 60l-4.5-6.2-7.2 2.1-1.3-7.4-7.4-1.3 2.1-7.2L4 32l6.2-4.5-2.1-7.2 7.4-1.3 1.3-7.4 7.2 2.1Z" fill="url(#g)" stroke="#b45309" stroke-width="1"/>
  <circle cx="32" cy="32" r="10" fill="#1a1a2e" stroke="#f59e0b" stroke-width="2"/>
  <circle cx="32" cy="32" r="4" fill="#f59e0b" opacity="0.6"/>
</svg>